# xmcd CD database file generated by Grip 3.3.1
# 
# Track frame offsets:
#       150
#       13364
#       25555
#       37072
#       51273
#       62699
#       75205
#       85462
#       97992
#       111444
#       126180
#       140207
# 
# Disc length: 2023 seconds
# 
# Revision: 3
# Processed by: cddbd v1.5.2PL0 Copyright (c) Steve Scherf et al.
# Submitted via: Grip 3.3.1
# 
DISCID=a107e50c
DTITLE=Various Artist - Nothing But The Blues
DYEAR=1900
DGENRE=Blues
TTITLE0=Muddy Waters - Walkin' Blues
TTITLE1=Muddy Waters - I Can't Be Satisfied
TTITLE2=Muddy Waters - Gypsy Woman
TTITLE3=Muddy Waters - I Feel Like Going Home
TTITLE4=Muddy Waters - Little Anna Mae
TTITLE5=Muddy Waters - Train Fare Home Blues
TTITLE6=Muddy Waters - Mean Red Spider
TTITLE7=Muddy Waters - Little Geneva
TTITLE8=Muddy Waters - Rollin' And Tumblin'
TTITLE9=Muddy Waters - Streamline Woman
TTITLE10=Muddy Waters - Rolling Stone
TTITLE11=Muddy Waters - You Gonna Miss Me
EXTD=
EXTT0=
EXTT1=
EXTT2=
EXTT3=
EXTT4=
EXTT5=
EXTT6=
EXTT7=
EXTT8=
EXTT9=
EXTT10=
EXTT11=
PLAYORDER=
